<mxfile host="app.diagrams.net" agent="Mozilla/5.0 (Windows NT 10.0; Win64; x64) AppleWebKit/537.36 (KHTML, like Gecko) Chrome/128.0.0.0 Safari/537.36" version="24.7.16">
  <diagram id="C5RBs43oDa-KdzZeNtuy" name="Page-1">
    <mxGraphModel dx="793" dy="893" grid="1" gridSize="10" guides="1" tooltips="1" connect="1" arrows="1" fold="1" page="1" pageScale="1" pageWidth="827" pageHeight="1169" math="0" shadow="0">
      <root>
        <mxCell id="WIyWlLk6GJQsqaUBKTNV-0" />
        <mxCell id="WIyWlLk6GJQsqaUBKTNV-1" parent="WIyWlLk6GJQsqaUBKTNV-0" />
        <mxCell id="Ot56kCqshOY_1HyMw4vU-63" value="" style="endArrow=block;endFill=1;html=1;edgeStyle=orthogonalEdgeStyle;align=left;verticalAlign=top;rounded=0;fontSize=12;startSize=8;endSize=8;curved=1;exitX=0;exitY=0.5;exitDx=0;exitDy=0;entryX=0.5;entryY=1;entryDx=0;entryDy=0;" parent="WIyWlLk6GJQsqaUBKTNV-1" source="lolcDKmiywsmoj2oJc4Q-12" target="Ot56kCqshOY_1HyMw4vU-16" edge="1">
          <mxGeometry x="-1" relative="1" as="geometry">
            <mxPoint x="559" y="670" as="sourcePoint" />
            <mxPoint x="270" y="339" as="targetPoint" />
            <Array as="points">
              <mxPoint x="530" y="670" />
              <mxPoint x="470" y="670" />
              <mxPoint x="470" y="410" />
              <mxPoint x="180" y="410" />
            </Array>
          </mxGeometry>
        </mxCell>
        <mxCell id="Ot56kCqshOY_1HyMw4vU-64" value="servidor" style="edgeLabel;html=1;align=center;verticalAlign=middle;resizable=0;points=[];fontSize=12;" parent="Ot56kCqshOY_1HyMw4vU-63" vertex="1" connectable="0">
          <mxGeometry x="0.1243" y="16" relative="1" as="geometry">
            <mxPoint as="offset" />
          </mxGeometry>
        </mxCell>
        <mxCell id="Ot56kCqshOY_1HyMw4vU-65" value="1" style="edgeLabel;html=1;align=center;verticalAlign=middle;resizable=0;points=[];fontSize=12;" parent="Ot56kCqshOY_1HyMw4vU-63" vertex="1" connectable="0">
          <mxGeometry x="-0.912" relative="1" as="geometry">
            <mxPoint as="offset" />
          </mxGeometry>
        </mxCell>
        <mxCell id="Ot56kCqshOY_1HyMw4vU-8" value="Correo" style="swimlane;fontStyle=1;align=center;verticalAlign=top;childLayout=stackLayout;horizontal=1;startSize=26;horizontalStack=0;resizeParent=1;resizeParentMax=0;resizeLast=0;collapsible=1;marginBottom=0;whiteSpace=wrap;html=1;" parent="WIyWlLk6GJQsqaUBKTNV-1" vertex="1">
          <mxGeometry x="40" y="440" width="220" height="60" as="geometry" />
        </mxCell>
        <mxCell id="Ot56kCqshOY_1HyMw4vU-10" value="" style="line;strokeWidth=1;fillColor=none;align=left;verticalAlign=middle;spacingTop=-1;spacingLeft=3;spacingRight=3;rotatable=0;labelPosition=right;points=[];portConstraint=eastwest;strokeColor=inherit;" parent="Ot56kCqshOY_1HyMw4vU-8" vertex="1">
          <mxGeometry y="26" width="220" height="8" as="geometry" />
        </mxCell>
        <mxCell id="Ot56kCqshOY_1HyMw4vU-11" value="&lt;u&gt;+ new(String, String, String): type&lt;/u&gt;" style="text;strokeColor=none;fillColor=none;align=left;verticalAlign=top;spacingLeft=4;spacingRight=4;overflow=hidden;rotatable=0;points=[[0,0.5],[1,0.5]];portConstraint=eastwest;whiteSpace=wrap;html=1;" parent="Ot56kCqshOY_1HyMw4vU-8" vertex="1">
          <mxGeometry y="34" width="220" height="26" as="geometry" />
        </mxCell>
        <mxCell id="Ot56kCqshOY_1HyMw4vU-12" value="ServidorPop" style="swimlane;fontStyle=1;align=center;verticalAlign=top;childLayout=stackLayout;horizontal=1;startSize=26;horizontalStack=0;resizeParent=1;resizeParentMax=0;resizeLast=0;collapsible=1;marginBottom=0;whiteSpace=wrap;html=1;" parent="WIyWlLk6GJQsqaUBKTNV-1" vertex="1">
          <mxGeometry x="20" y="320" width="160" height="34" as="geometry" />
        </mxCell>
        <mxCell id="Ot56kCqshOY_1HyMw4vU-14" value="" style="line;strokeWidth=1;fillColor=none;align=left;verticalAlign=middle;spacingTop=-1;spacingLeft=3;spacingRight=3;rotatable=0;labelPosition=right;points=[];portConstraint=eastwest;strokeColor=inherit;" parent="Ot56kCqshOY_1HyMw4vU-12" vertex="1">
          <mxGeometry y="26" width="160" height="8" as="geometry" />
        </mxCell>
        <mxCell id="Ot56kCqshOY_1HyMw4vU-16" value="&lt;p style=&quot;margin:0px;margin-top:4px;text-align:center;&quot;&gt;&lt;i&gt;&amp;lt;&amp;lt;Interface&amp;gt;&amp;gt;&lt;/i&gt;&lt;br&gt;&lt;b&gt;IServidor&lt;/b&gt;&lt;/p&gt;&lt;hr size=&quot;1&quot; style=&quot;border-style:solid;&quot;&gt;&lt;p style=&quot;margin:0px;margin-left:4px;&quot;&gt;+ recibirNuevos(String, String): List&amp;lt;Correo&amp;gt;&lt;br&gt;+ conectar(String, String)&lt;/p&gt;&lt;p style=&quot;margin:0px;margin-left:4px;&quot;&gt;+ enviar(Correo)&lt;br&gt;&lt;/p&gt;&lt;p style=&quot;margin:0px;margin-left:4px;&quot;&gt;&lt;br&gt;&lt;/p&gt;" style="verticalAlign=top;align=left;overflow=fill;html=1;whiteSpace=wrap;" parent="WIyWlLk6GJQsqaUBKTNV-1" vertex="1">
          <mxGeometry x="50" y="26" width="260" height="154" as="geometry" />
        </mxCell>
        <mxCell id="Ot56kCqshOY_1HyMw4vU-20" value="" style="endArrow=block;dashed=1;endFill=0;endSize=12;html=1;rounded=0;fontSize=12;curved=1;exitX=0.5;exitY=0;exitDx=0;exitDy=0;entryX=0.215;entryY=1.019;entryDx=0;entryDy=0;entryPerimeter=0;" parent="WIyWlLk6GJQsqaUBKTNV-1" source="Ot56kCqshOY_1HyMw4vU-12" target="Ot56kCqshOY_1HyMw4vU-16" edge="1">
          <mxGeometry width="160" relative="1" as="geometry">
            <mxPoint x="360" y="320" as="sourcePoint" />
            <mxPoint x="520" y="320" as="targetPoint" />
          </mxGeometry>
        </mxCell>
        <mxCell id="Ot56kCqshOY_1HyMw4vU-32" value="" style="endArrow=block;endFill=1;html=1;edgeStyle=orthogonalEdgeStyle;align=left;verticalAlign=top;rounded=0;fontSize=12;startSize=8;endSize=8;curved=1;exitX=0.005;exitY=0.979;exitDx=0;exitDy=0;exitPerimeter=0;entryX=1.018;entryY=-0.038;entryDx=0;entryDy=0;entryPerimeter=0;" parent="WIyWlLk6GJQsqaUBKTNV-1" source="lolcDKmiywsmoj2oJc4Q-12" target="Ot56kCqshOY_1HyMw4vU-11" edge="1">
          <mxGeometry x="-1" relative="1" as="geometry">
            <mxPoint x="411.97" y="762.9939999999999" as="sourcePoint" />
            <mxPoint x="420" y="583.5" as="targetPoint" />
          </mxGeometry>
        </mxCell>
        <mxCell id="Ot56kCqshOY_1HyMw4vU-44" value="n" style="edgeLabel;html=1;align=center;verticalAlign=middle;resizable=0;points=[];fontSize=12;" parent="Ot56kCqshOY_1HyMw4vU-32" vertex="1" connectable="0">
          <mxGeometry x="-0.7881" y="-1" relative="1" as="geometry">
            <mxPoint as="offset" />
          </mxGeometry>
        </mxCell>
        <mxCell id="Ot56kCqshOY_1HyMw4vU-45" value="" style="endArrow=block;endFill=1;html=1;edgeStyle=orthogonalEdgeStyle;align=left;verticalAlign=top;rounded=0;fontSize=12;startSize=8;endSize=8;curved=1;exitX=0;exitY=0.5;exitDx=0;exitDy=0;entryX=0.436;entryY=1.154;entryDx=0;entryDy=0;entryPerimeter=0;" parent="WIyWlLk6GJQsqaUBKTNV-1" source="lolcDKmiywsmoj2oJc4Q-13" target="Ot56kCqshOY_1HyMw4vU-11" edge="1">
          <mxGeometry x="-1" relative="1" as="geometry">
            <mxPoint x="414" y="769" as="sourcePoint" />
            <mxPoint x="274" y="483" as="targetPoint" />
            <Array as="points">
              <mxPoint x="530" y="730" />
              <mxPoint x="310" y="730" />
              <mxPoint x="310" y="504" />
            </Array>
          </mxGeometry>
        </mxCell>
        <mxCell id="Ot56kCqshOY_1HyMw4vU-46" value="inbox" style="edgeLabel;html=1;align=center;verticalAlign=middle;resizable=0;points=[];fontSize=12;" parent="Ot56kCqshOY_1HyMw4vU-45" vertex="1" connectable="0">
          <mxGeometry x="-0.1944" y="-3" relative="1" as="geometry">
            <mxPoint x="77" y="-124" as="offset" />
          </mxGeometry>
        </mxCell>
        <mxCell id="Ot56kCqshOY_1HyMw4vU-47" value="borrados" style="edgeLabel;html=1;align=center;verticalAlign=middle;resizable=0;points=[];fontSize=12;" parent="Ot56kCqshOY_1HyMw4vU-45" vertex="1" connectable="0">
          <mxGeometry x="0.0539" y="3" relative="1" as="geometry">
            <mxPoint x="-34" y="13" as="offset" />
          </mxGeometry>
        </mxCell>
        <mxCell id="Ot56kCqshOY_1HyMw4vU-48" value="n" style="edgeLabel;html=1;align=center;verticalAlign=middle;resizable=0;points=[];fontSize=12;" parent="Ot56kCqshOY_1HyMw4vU-45" vertex="1" connectable="0">
          <mxGeometry x="-0.7881" y="-1" relative="1" as="geometry">
            <mxPoint as="offset" />
          </mxGeometry>
        </mxCell>
        <mxCell id="Ot56kCqshOY_1HyMw4vU-66" value="&lt;p style=&quot;margin:0px;margin-top:4px;text-align:center;&quot;&gt;&lt;i&gt;&amp;lt;&amp;lt;Interface&amp;gt;&amp;gt;&lt;/i&gt;&lt;br&gt;&lt;b&gt;IDistante&lt;/b&gt;&lt;/p&gt;&lt;hr size=&quot;1&quot; style=&quot;border-style:solid;&quot;&gt;&lt;p style=&quot;margin:0px;margin-left:4px;&quot;&gt;&lt;span style=&quot;background-color: initial;&quot;&gt;+ tazaDeTransferencia()&lt;/span&gt;&lt;br&gt;&lt;/p&gt;&lt;p style=&quot;margin:0px;margin-left:4px;&quot;&gt;+ resetear()&lt;br&gt;&lt;/p&gt;&lt;p style=&quot;margin:0px;margin-left:4px;&quot;&gt;+ realizarBackUp()&lt;/p&gt;" style="verticalAlign=top;align=left;overflow=fill;html=1;whiteSpace=wrap;" parent="WIyWlLk6GJQsqaUBKTNV-1" vertex="1">
          <mxGeometry x="370" y="26" width="260" height="154" as="geometry" />
        </mxCell>
        <mxCell id="Ot56kCqshOY_1HyMw4vU-4" value="ClienteBorradorDeMails" style="swimlane;fontStyle=1;align=center;verticalAlign=top;childLayout=stackLayout;horizontal=1;startSize=26;horizontalStack=0;resizeParent=1;resizeParentMax=0;resizeLast=0;collapsible=1;marginBottom=0;whiteSpace=wrap;html=1;" parent="WIyWlLk6GJQsqaUBKTNV-1" vertex="1">
          <mxGeometry x="850" y="750" width="270" height="112" as="geometry" />
        </mxCell>
        <mxCell id="Ot56kCqshOY_1HyMw4vU-6" value="" style="line;strokeWidth=1;fillColor=none;align=left;verticalAlign=middle;spacingTop=-1;spacingLeft=3;spacingRight=3;rotatable=0;labelPosition=right;points=[];portConstraint=eastwest;strokeColor=inherit;" parent="Ot56kCqshOY_1HyMw4vU-4" vertex="1">
          <mxGeometry y="26" width="270" height="8" as="geometry" />
        </mxCell>
        <mxCell id="Ot56kCqshOY_1HyMw4vU-7" value="&lt;u&gt;+ new(&lt;/u&gt;&lt;u&gt;String, String, SesiónEmail)&lt;/u&gt;" style="text;strokeColor=none;fillColor=none;align=left;verticalAlign=top;spacingLeft=4;spacingRight=4;overflow=hidden;rotatable=0;points=[[0,0.5],[1,0.5]];portConstraint=eastwest;whiteSpace=wrap;html=1;" parent="Ot56kCqshOY_1HyMw4vU-4" vertex="1">
          <mxGeometry y="34" width="270" height="26" as="geometry" />
        </mxCell>
        <mxCell id="Ot56kCqshOY_1HyMw4vU-28" value="+ eliminarBorrado(Correo)" style="text;strokeColor=none;fillColor=none;align=left;verticalAlign=top;spacingLeft=4;spacingRight=4;overflow=hidden;rotatable=0;points=[[0,0.5],[1,0.5]];portConstraint=eastwest;whiteSpace=wrap;html=1;" parent="Ot56kCqshOY_1HyMw4vU-4" vertex="1">
          <mxGeometry y="60" width="270" height="26" as="geometry" />
        </mxCell>
        <mxCell id="Ot56kCqshOY_1HyMw4vU-26" value="+ borrarCorreo(Correo)" style="text;strokeColor=none;fillColor=none;align=left;verticalAlign=top;spacingLeft=4;spacingRight=4;overflow=hidden;rotatable=0;points=[[0,0.5],[1,0.5]];portConstraint=eastwest;whiteSpace=wrap;html=1;" parent="Ot56kCqshOY_1HyMw4vU-4" vertex="1">
          <mxGeometry y="86" width="270" height="26" as="geometry" />
        </mxCell>
        <mxCell id="lolcDKmiywsmoj2oJc4Q-0" value="ClienteManejadorDeMails" style="swimlane;fontStyle=1;align=center;verticalAlign=top;childLayout=stackLayout;horizontal=1;startSize=26;horizontalStack=0;resizeParent=1;resizeParentMax=0;resizeLast=0;collapsible=1;marginBottom=0;whiteSpace=wrap;html=1;" vertex="1" parent="WIyWlLk6GJQsqaUBKTNV-1">
          <mxGeometry x="850" y="390" width="290" height="190" as="geometry" />
        </mxCell>
        <mxCell id="lolcDKmiywsmoj2oJc4Q-1" value="- nombreDeUsuario:String&amp;nbsp;" style="text;strokeColor=none;fillColor=none;align=left;verticalAlign=top;spacingLeft=4;spacingRight=4;overflow=hidden;rotatable=0;points=[[0,0.5],[1,0.5]];portConstraint=eastwest;whiteSpace=wrap;html=1;" vertex="1" parent="lolcDKmiywsmoj2oJc4Q-0">
          <mxGeometry y="26" width="290" height="26" as="geometry" />
        </mxCell>
        <mxCell id="lolcDKmiywsmoj2oJc4Q-2" value="- passusuario:String" style="text;strokeColor=none;fillColor=none;align=left;verticalAlign=top;spacingLeft=4;spacingRight=4;overflow=hidden;rotatable=0;points=[[0,0.5],[1,0.5]];portConstraint=eastwest;whiteSpace=wrap;html=1;" vertex="1" parent="lolcDKmiywsmoj2oJc4Q-0">
          <mxGeometry y="52" width="290" height="26" as="geometry" />
        </mxCell>
        <mxCell id="lolcDKmiywsmoj2oJc4Q-3" value="" style="line;strokeWidth=1;fillColor=none;align=left;verticalAlign=middle;spacingTop=-1;spacingLeft=3;spacingRight=3;rotatable=0;labelPosition=right;points=[];portConstraint=eastwest;strokeColor=inherit;" vertex="1" parent="lolcDKmiywsmoj2oJc4Q-0">
          <mxGeometry y="78" width="290" height="8" as="geometry" />
        </mxCell>
        <mxCell id="lolcDKmiywsmoj2oJc4Q-4" value="&lt;u&gt;+ new(IServidor, String, String,)&lt;/u&gt;" style="text;strokeColor=none;fillColor=none;align=left;verticalAlign=top;spacingLeft=4;spacingRight=4;overflow=hidden;rotatable=0;points=[[0,0.5],[1,0.5]];portConstraint=eastwest;whiteSpace=wrap;html=1;" vertex="1" parent="lolcDKmiywsmoj2oJc4Q-0">
          <mxGeometry y="86" width="290" height="26" as="geometry" />
        </mxCell>
        <mxCell id="lolcDKmiywsmoj2oJc4Q-5" value="+ conectar()" style="text;strokeColor=none;fillColor=none;align=left;verticalAlign=top;spacingLeft=4;spacingRight=4;overflow=hidden;rotatable=0;points=[[0,0.5],[1,0.5]];portConstraint=eastwest;whiteSpace=wrap;html=1;" vertex="1" parent="lolcDKmiywsmoj2oJc4Q-0">
          <mxGeometry y="112" width="290" height="26" as="geometry" />
        </mxCell>
        <mxCell id="Ot56kCqshOY_1HyMw4vU-30" value="+ recibirNuevos()" style="text;strokeColor=none;fillColor=none;align=left;verticalAlign=top;spacingLeft=4;spacingRight=4;overflow=hidden;rotatable=0;points=[[0,0.5],[1,0.5]];portConstraint=eastwest;whiteSpace=wrap;html=1;" parent="lolcDKmiywsmoj2oJc4Q-0" vertex="1">
          <mxGeometry y="138" width="290" height="26" as="geometry" />
        </mxCell>
        <mxCell id="Ot56kCqshOY_1HyMw4vU-31" value="+ enviarCorreo(String, String, String)" style="text;strokeColor=none;fillColor=none;align=left;verticalAlign=top;spacingLeft=4;spacingRight=4;overflow=hidden;rotatable=0;points=[[0,0.5],[1,0.5]];portConstraint=eastwest;whiteSpace=wrap;html=1;" parent="lolcDKmiywsmoj2oJc4Q-0" vertex="1">
          <mxGeometry y="164" width="290" height="26" as="geometry" />
        </mxCell>
        <mxCell id="lolcDKmiywsmoj2oJc4Q-8" value="BandejaDeEntrada" style="swimlane;fontStyle=1;align=center;verticalAlign=top;childLayout=stackLayout;horizontal=1;startSize=26;horizontalStack=0;resizeParent=1;resizeParentMax=0;resizeLast=0;collapsible=1;marginBottom=0;whiteSpace=wrap;html=1;" vertex="1" parent="WIyWlLk6GJQsqaUBKTNV-1">
          <mxGeometry x="530" y="560" width="290" height="216" as="geometry" />
        </mxCell>
        <mxCell id="lolcDKmiywsmoj2oJc4Q-17" value="" style="endArrow=block;endFill=1;html=1;edgeStyle=orthogonalEdgeStyle;align=left;verticalAlign=top;rounded=0;fontSize=12;startSize=8;endSize=8;curved=1;entryX=0.5;entryY=1.115;entryDx=0;entryDy=0;entryPerimeter=0;" edge="1" parent="lolcDKmiywsmoj2oJc4Q-8" target="lolcDKmiywsmoj2oJc4Q-15">
          <mxGeometry x="-1" relative="1" as="geometry">
            <mxPoint x="310" y="249" as="sourcePoint" />
            <mxPoint x="-10" y="-230" as="targetPoint" />
            <Array as="points">
              <mxPoint x="310" y="260" />
              <mxPoint x="140" y="260" />
              <mxPoint x="140" y="270" />
              <mxPoint x="145" y="270" />
            </Array>
          </mxGeometry>
        </mxCell>
        <mxCell id="lolcDKmiywsmoj2oJc4Q-18" value="bandejaDeEntrada" style="edgeLabel;html=1;align=center;verticalAlign=middle;resizable=0;points=[];fontSize=12;" vertex="1" connectable="0" parent="lolcDKmiywsmoj2oJc4Q-17">
          <mxGeometry x="0.1243" y="16" relative="1" as="geometry">
            <mxPoint as="offset" />
          </mxGeometry>
        </mxCell>
        <mxCell id="lolcDKmiywsmoj2oJc4Q-19" value="1" style="edgeLabel;html=1;align=center;verticalAlign=middle;resizable=0;points=[];fontSize=12;" vertex="1" connectable="0" parent="lolcDKmiywsmoj2oJc4Q-17">
          <mxGeometry x="-0.912" relative="1" as="geometry">
            <mxPoint as="offset" />
          </mxGeometry>
        </mxCell>
        <mxCell id="lolcDKmiywsmoj2oJc4Q-9" value="- nombreDeUsuario:String&amp;nbsp;" style="text;strokeColor=none;fillColor=none;align=left;verticalAlign=top;spacingLeft=4;spacingRight=4;overflow=hidden;rotatable=0;points=[[0,0.5],[1,0.5]];portConstraint=eastwest;whiteSpace=wrap;html=1;" vertex="1" parent="lolcDKmiywsmoj2oJc4Q-8">
          <mxGeometry y="26" width="290" height="26" as="geometry" />
        </mxCell>
        <mxCell id="lolcDKmiywsmoj2oJc4Q-10" value="- passusuario:String" style="text;strokeColor=none;fillColor=none;align=left;verticalAlign=top;spacingLeft=4;spacingRight=4;overflow=hidden;rotatable=0;points=[[0,0.5],[1,0.5]];portConstraint=eastwest;whiteSpace=wrap;html=1;" vertex="1" parent="lolcDKmiywsmoj2oJc4Q-8">
          <mxGeometry y="52" width="290" height="26" as="geometry" />
        </mxCell>
        <mxCell id="lolcDKmiywsmoj2oJc4Q-11" value="" style="line;strokeWidth=1;fillColor=none;align=left;verticalAlign=middle;spacingTop=-1;spacingLeft=3;spacingRight=3;rotatable=0;labelPosition=right;points=[];portConstraint=eastwest;strokeColor=inherit;" vertex="1" parent="lolcDKmiywsmoj2oJc4Q-8">
          <mxGeometry y="78" width="290" height="8" as="geometry" />
        </mxCell>
        <mxCell id="lolcDKmiywsmoj2oJc4Q-12" value="&lt;u&gt;+ new(IServidor, String, String,)&lt;/u&gt;" style="text;strokeColor=none;fillColor=none;align=left;verticalAlign=top;spacingLeft=4;spacingRight=4;overflow=hidden;rotatable=0;points=[[0,0.5],[1,0.5]];portConstraint=eastwest;whiteSpace=wrap;html=1;" vertex="1" parent="lolcDKmiywsmoj2oJc4Q-8">
          <mxGeometry y="86" width="290" height="26" as="geometry" />
        </mxCell>
        <mxCell id="lolcDKmiywsmoj2oJc4Q-13" value="+ conectar()" style="text;strokeColor=none;fillColor=none;align=left;verticalAlign=top;spacingLeft=4;spacingRight=4;overflow=hidden;rotatable=0;points=[[0,0.5],[1,0.5]];portConstraint=eastwest;whiteSpace=wrap;html=1;" vertex="1" parent="lolcDKmiywsmoj2oJc4Q-8">
          <mxGeometry y="112" width="290" height="26" as="geometry" />
        </mxCell>
        <mxCell id="lolcDKmiywsmoj2oJc4Q-16" value="+ borrarCorreo()" style="text;strokeColor=none;fillColor=none;align=left;verticalAlign=top;spacingLeft=4;spacingRight=4;overflow=hidden;rotatable=0;points=[[0,0.5],[1,0.5]];portConstraint=eastwest;whiteSpace=wrap;html=1;" vertex="1" parent="lolcDKmiywsmoj2oJc4Q-8">
          <mxGeometry y="138" width="290" height="26" as="geometry" />
        </mxCell>
        <mxCell id="lolcDKmiywsmoj2oJc4Q-14" value="+ contarBorrados()" style="text;strokeColor=none;fillColor=none;align=left;verticalAlign=top;spacingLeft=4;spacingRight=4;overflow=hidden;rotatable=0;points=[[0,0.5],[1,0.5]];portConstraint=eastwest;whiteSpace=wrap;html=1;" vertex="1" parent="lolcDKmiywsmoj2oJc4Q-8">
          <mxGeometry y="164" width="290" height="26" as="geometry" />
        </mxCell>
        <mxCell id="lolcDKmiywsmoj2oJc4Q-15" value="+ contarInbox()" style="text;strokeColor=none;fillColor=none;align=left;verticalAlign=top;spacingLeft=4;spacingRight=4;overflow=hidden;rotatable=0;points=[[0,0.5],[1,0.5]];portConstraint=eastwest;whiteSpace=wrap;html=1;" vertex="1" parent="lolcDKmiywsmoj2oJc4Q-8">
          <mxGeometry y="190" width="290" height="26" as="geometry" />
        </mxCell>
        <mxCell id="lolcDKmiywsmoj2oJc4Q-20" value="" style="endArrow=block;endFill=1;html=1;edgeStyle=orthogonalEdgeStyle;align=left;verticalAlign=top;rounded=0;fontSize=12;startSize=8;endSize=8;curved=1;exitX=0;exitY=0.5;exitDx=0;exitDy=0;entryX=0.5;entryY=1;entryDx=0;entryDy=0;" edge="1" parent="WIyWlLk6GJQsqaUBKTNV-1" source="lolcDKmiywsmoj2oJc4Q-4" target="Ot56kCqshOY_1HyMw4vU-16">
          <mxGeometry x="-1" relative="1" as="geometry">
            <mxPoint x="620" y="629" as="sourcePoint" />
            <mxPoint x="270" y="150" as="targetPoint" />
            <Array as="points">
              <mxPoint x="850" y="480" />
              <mxPoint x="560" y="480" />
              <mxPoint x="560" y="380" />
              <mxPoint x="270" y="380" />
              <mxPoint x="270" y="180" />
            </Array>
          </mxGeometry>
        </mxCell>
        <mxCell id="lolcDKmiywsmoj2oJc4Q-21" value="servidor" style="edgeLabel;html=1;align=center;verticalAlign=middle;resizable=0;points=[];fontSize=12;" vertex="1" connectable="0" parent="lolcDKmiywsmoj2oJc4Q-20">
          <mxGeometry x="0.1243" y="16" relative="1" as="geometry">
            <mxPoint as="offset" />
          </mxGeometry>
        </mxCell>
        <mxCell id="lolcDKmiywsmoj2oJc4Q-22" value="1" style="edgeLabel;html=1;align=center;verticalAlign=middle;resizable=0;points=[];fontSize=12;" vertex="1" connectable="0" parent="lolcDKmiywsmoj2oJc4Q-20">
          <mxGeometry x="-0.912" relative="1" as="geometry">
            <mxPoint as="offset" />
          </mxGeometry>
        </mxCell>
        <mxCell id="lolcDKmiywsmoj2oJc4Q-23" value="" style="endArrow=block;endFill=1;html=1;edgeStyle=orthogonalEdgeStyle;align=left;verticalAlign=top;rounded=0;fontSize=12;startSize=8;endSize=8;curved=1;exitX=0.5;exitY=0;exitDx=0;exitDy=0;entryX=0.5;entryY=1;entryDx=0;entryDy=0;" edge="1" parent="WIyWlLk6GJQsqaUBKTNV-1" source="Ot56kCqshOY_1HyMw4vU-4" target="Ot56kCqshOY_1HyMw4vU-16">
          <mxGeometry x="-1" relative="1" as="geometry">
            <mxPoint x="890" y="1059" as="sourcePoint" />
            <mxPoint x="220" y="750" as="targetPoint" />
            <Array as="points">
              <mxPoint x="985" y="690" />
              <mxPoint x="1050" y="690" />
              <mxPoint x="1050" y="300" />
              <mxPoint x="310" y="300" />
              <mxPoint x="310" y="240" />
              <mxPoint x="140" y="240" />
              <mxPoint x="140" y="180" />
            </Array>
          </mxGeometry>
        </mxCell>
        <mxCell id="lolcDKmiywsmoj2oJc4Q-24" value="servidor" style="edgeLabel;html=1;align=center;verticalAlign=middle;resizable=0;points=[];fontSize=12;" vertex="1" connectable="0" parent="lolcDKmiywsmoj2oJc4Q-23">
          <mxGeometry x="0.1243" y="16" relative="1" as="geometry">
            <mxPoint as="offset" />
          </mxGeometry>
        </mxCell>
        <mxCell id="lolcDKmiywsmoj2oJc4Q-25" value="1" style="edgeLabel;html=1;align=center;verticalAlign=middle;resizable=0;points=[];fontSize=12;" vertex="1" connectable="0" parent="lolcDKmiywsmoj2oJc4Q-23">
          <mxGeometry x="-0.912" relative="1" as="geometry">
            <mxPoint as="offset" />
          </mxGeometry>
        </mxCell>
      </root>
    </mxGraphModel>
  </diagram>
</mxfile>
